<?xml version="1.0" standalone="no"?>
<!DOCTYPE svg PUBLIC "-//W3C//DTD SVG 20010904//EN"
 "http://www.w3.org/TR/2001/REC-SVG-20010904/DTD/svg10.dtd">
<svg version="1.0" xmlns="http://www.w3.org/2000/svg"
 width="512.000000pt" height="512.000000pt" viewBox="0 0 512.000000 512.000000"
 preserveAspectRatio="xMidYMid meet">

<g transform="translate(0.000000,512.000000) scale(0.100000,-0.100000)"
fill="#000000" stroke="none">
<path d="M2495 5106 c-40 -17 -82 -67 -95 -114 -13 -49 -13 -366 1 -417 24
-85 119 -140 201 -116 53 16 103 66 117 116 14 51 14 368 1 417 -28 100 -134
154 -225 114z"/>
<path d="M875 4430 c-99 -21 -156 -121 -125 -215 15 -45 230 -272 299 -317
137 -87 301 36 251 188 -9 27 -49 76 -129 157 -64 66 -132 132 -152 148 -41
32 -100 48 -144 39z"/>
<path d="M4171 4427 c-38 -8 -62 -26 -182 -144 -156 -152 -185 -197 -176 -270
14 -123 150 -184 258 -115 69 45 284 272 299 317 17 51 7 109 -25 150 -43 57
-100 77 -174 62z"/>
<path d="M2412 4109 c-611 -54 -1149 -514 -1303 -1113 -47 -183 -49 -214 -49
-1073 l0 -813 -106 0 c-123 0 -168 -18 -207 -80 -22 -34 -22 -42 -25 -447 -3
-441 -1 -469 45 -524 53 -63 -66 -59 1793 -59 1859 0 1740 -4 1793 59 46 55
48 83 45 524 -3 405 -3 413 -25 447 -39 62 -84 80 -207 80 l-106 0 0 813 c0
859 -2 890 -49 1073 -156 608 -690 1058 -1321 1114 -127 11 -144 11 -278 -1z
m354 -344 c446 -78 818 -427 928 -870 32 -130 36 -241 36 -1012 l0 -773 -1170
0 -1170 0 0 773 c0 771 4 882 36 1012 80 324 303 605 600 757 108 56 216 93
320 112 107 19 311 20 420 1z m1294 -3210 l0 -225 -1500 0 -1500 0 0 225 0
225 1500 0 1500 0 0 -225z"/>
<path d="M2495 3437 c-68 -31 -112 -118 -96 -188 19 -82 72 -122 181 -133 144
-15 246 -62 337 -154 84 -86 143 -223 143 -334 0 -61 36 -127 86 -156 49 -28
130 -26 172 5 56 41 72 79 72 167 0 357 -266 687 -629 781 -91 23 -228 29
-266 12z"/>
<path d="M160 2769 c-62 -25 -100 -85 -100 -157 0 -54 25 -100 73 -136 27 -20
41 -21 257 -21 215 0 230 1 256 21 49 36 67 70 72 131 3 48 0 64 -20 92 -51
75 -55 76 -296 78 -130 1 -227 -2 -242 -8z"/>
<path d="M4495 2766 c-37 -16 -83 -68 -91 -102 -10 -40 2 -114 23 -142 11 -14
32 -35 47 -46 26 -20 41 -21 256 -21 216 0 230 1 257 21 99 73 99 204 0 278
-27 20 -43 21 -245 23 -165 2 -224 0 -247 -11z"/>
</g>
</svg>
